<?xml version="1.0" encoding="UTF-8"?>
<svg width="58px" height="58px" viewBox="0 0 58 58" version="1.1" xmlns="http://www.w3.org/2000/svg" xmlns:xlink="http://www.w3.org/1999/xlink">
    <!-- Generator: Sketch 53.2 (72643) - https://sketchapp.com -->
    <title>Path</title>
    <desc>Created with Sketch.</desc>
    <g id="Page-1" stroke="none" stroke-width="1" fill="none" fill-rule="evenodd" stroke-linecap="round" stroke-linejoin="round">
        <g id="Desktop-HD-Copy-5" transform="translate(-83.000000, -59.000000)" stroke="#738881" stroke-width="3.5">
            <path d="M113.078708,65.328523 L118.994156,63.4139799 C121.361426,62.6476171 123.935968,63.7139795 125.067785,65.9285223 L127.895964,71.4648793 C128.138691,71.9394242 128.525963,72.3266965 129.000508,72.5694235 L134.536865,75.3976019 C136.754135,76.5294188 137.81777,79.1039612 137.051407,81.4712311 L135.136864,87.3866786 C134.973228,87.8939507 134.973228,88.4394046 135.136864,88.9466767 L137.051407,94.8621242 C137.81777,97.2293941 136.751408,99.8039365 134.536865,100.935753 L129.000508,103.763932 C128.525963,104.006659 128.138691,104.393931 127.895964,104.868476 L125.067785,110.404833 C123.935968,112.622103 121.361426,113.685738 118.994156,112.919375 L113.078708,111.004832 C112.571436,110.841196 112.025982,110.841196 111.51871,111.004832 L105.603263,112.919375 C103.235993,113.685738 100.661451,112.619376 99.5296337,110.404833 L96.7014553,104.868476 C96.4587283,104.393931 96.071456,104.006659 95.5969111,103.763932 L90.0605541,100.935753 C87.843284,99.8039365 86.7796489,97.2293941 87.5460116,94.8621242 L89.4605548,88.9466767 C89.624191,88.4394046 89.624191,87.8939507 89.4605548,87.3866786 L87.5460116,81.4712311 C86.7796489,79.1039612 87.8460113,76.5294188 90.0605541,75.3976019 L95.5969111,72.5694235 C96.071456,72.3266965 96.4587283,71.9394242 96.7014553,71.4648793 L99.5296337,65.9285223 C100.661451,63.7112522 103.235993,62.6476171 105.603263,63.4139799 L111.51871,65.328523 C112.025982,65.4921592 112.571436,65.4921592 113.078708,65.328523 Z" id="Path" transform="translate(112.298709, 88.166678) rotate(21.000000) translate(-112.298709, -88.166678) "></path>
        </g>
    </g>
</svg>